<mxfile host="app.diagrams.net" modified="2022-05-16T11:55:17.828Z" agent="5.0 (Windows NT 10.0; Win64; x64) AppleWebKit/537.36 (KHTML, like Gecko) Chrome/101.0.4951.41 Safari/537.36 Edg/101.0.1210.32" etag="DNt6ssC-2wqsVjYRZQFh" version="17.2.0" type="github" pages="2">
  <diagram id="C5RBs43oDa-KdzZeNtuy" name="Page-1">
    <mxGraphModel dx="1849" dy="468" grid="1" gridSize="10" guides="1" tooltips="1" connect="1" arrows="1" fold="1" page="1" pageScale="1" pageWidth="827" pageHeight="1169" math="0" shadow="0">
      <root>
        <mxCell id="WIyWlLk6GJQsqaUBKTNV-0" />
        <mxCell id="WIyWlLk6GJQsqaUBKTNV-1" parent="WIyWlLk6GJQsqaUBKTNV-0" />
        <mxCell id="W0UDvC0KFwE0tktNI8-N-16" style="edgeStyle=orthogonalEdgeStyle;rounded=0;orthogonalLoop=1;jettySize=auto;html=1;exitX=0;exitY=0.5;exitDx=0;exitDy=0;entryX=0.5;entryY=0;entryDx=0;entryDy=0;" edge="1" parent="WIyWlLk6GJQsqaUBKTNV-1" source="W0UDvC0KFwE0tktNI8-N-11" target="W0UDvC0KFwE0tktNI8-N-13">
          <mxGeometry relative="1" as="geometry" />
        </mxCell>
        <mxCell id="W0UDvC0KFwE0tktNI8-N-18" value="All Event&#39;s Types &lt;br&gt;All Filters options" style="edgeLabel;html=1;align=center;verticalAlign=middle;resizable=0;points=[];" vertex="1" connectable="0" parent="W0UDvC0KFwE0tktNI8-N-16">
          <mxGeometry x="-0.2111" y="1" relative="1" as="geometry">
            <mxPoint as="offset" />
          </mxGeometry>
        </mxCell>
        <mxCell id="W0UDvC0KFwE0tktNI8-N-17" style="edgeStyle=orthogonalEdgeStyle;rounded=0;orthogonalLoop=1;jettySize=auto;html=1;exitX=1;exitY=0.5;exitDx=0;exitDy=0;entryX=0.5;entryY=0;entryDx=0;entryDy=0;" edge="1" parent="WIyWlLk6GJQsqaUBKTNV-1" source="W0UDvC0KFwE0tktNI8-N-11" target="W0UDvC0KFwE0tktNI8-N-14">
          <mxGeometry relative="1" as="geometry" />
        </mxCell>
        <mxCell id="W0UDvC0KFwE0tktNI8-N-19" value="Telemetry events&lt;br&gt;&amp;nbsp;Device Lifecycle events&lt;br&gt;Limited Filter options" style="edgeLabel;html=1;align=center;verticalAlign=middle;resizable=0;points=[];" vertex="1" connectable="0" parent="W0UDvC0KFwE0tktNI8-N-17">
          <mxGeometry x="-0.386" y="2" relative="1" as="geometry">
            <mxPoint as="offset" />
          </mxGeometry>
        </mxCell>
        <mxCell id="W0UDvC0KFwE0tktNI8-N-11" value="&lt;b&gt;What&lt;/b&gt; data?" style="rhombus;whiteSpace=wrap;html=1;shadow=0;fontFamily=Helvetica;fontSize=12;align=center;strokeWidth=1;spacing=6;spacingTop=-4;" vertex="1" parent="WIyWlLk6GJQsqaUBKTNV-1">
          <mxGeometry x="150" y="40" width="100" height="80" as="geometry" />
        </mxCell>
        <mxCell id="W0UDvC0KFwE0tktNI8-N-13" value="&amp;nbsp;IoT Hub message routing" style="rounded=1;whiteSpace=wrap;html=1;fontSize=12;glass=0;strokeWidth=1;shadow=0;" vertex="1" parent="WIyWlLk6GJQsqaUBKTNV-1">
          <mxGeometry x="-70" y="140" width="120" height="40" as="geometry" />
        </mxCell>
        <mxCell id="W0UDvC0KFwE0tktNI8-N-14" value="IoT Hub integration with Event Grid" style="rounded=1;whiteSpace=wrap;html=1;fontSize=12;glass=0;strokeWidth=1;shadow=0;" vertex="1" parent="WIyWlLk6GJQsqaUBKTNV-1">
          <mxGeometry x="370" y="140" width="120" height="40" as="geometry" />
        </mxCell>
        <mxCell id="W0UDvC0KFwE0tktNI8-N-20" style="edgeStyle=orthogonalEdgeStyle;rounded=0;orthogonalLoop=1;jettySize=auto;html=1;exitX=0;exitY=0.5;exitDx=0;exitDy=0;entryX=0.5;entryY=0;entryDx=0;entryDy=0;" edge="1" parent="WIyWlLk6GJQsqaUBKTNV-1" source="W0UDvC0KFwE0tktNI8-N-24" target="W0UDvC0KFwE0tktNI8-N-25">
          <mxGeometry relative="1" as="geometry" />
        </mxCell>
        <mxCell id="W0UDvC0KFwE0tktNI8-N-21" value="&lt;div&gt;Event Hubs&amp;nbsp;&lt;/div&gt;&lt;div&gt;Azure Blob Storage&amp;nbsp;&lt;/div&gt;&lt;div&gt;Service Bus queue&amp;nbsp;&lt;/div&gt;&lt;div&gt;Service Bus topics&amp;nbsp;&lt;/div&gt;" style="edgeLabel;html=1;align=center;verticalAlign=middle;resizable=0;points=[];" vertex="1" connectable="0" parent="W0UDvC0KFwE0tktNI8-N-20">
          <mxGeometry x="-0.2111" y="1" relative="1" as="geometry">
            <mxPoint as="offset" />
          </mxGeometry>
        </mxCell>
        <mxCell id="W0UDvC0KFwE0tktNI8-N-22" style="edgeStyle=orthogonalEdgeStyle;rounded=0;orthogonalLoop=1;jettySize=auto;html=1;exitX=1;exitY=0.5;exitDx=0;exitDy=0;entryX=0.5;entryY=0;entryDx=0;entryDy=0;" edge="1" parent="WIyWlLk6GJQsqaUBKTNV-1" source="W0UDvC0KFwE0tktNI8-N-24" target="W0UDvC0KFwE0tktNI8-N-26">
          <mxGeometry relative="1" as="geometry" />
        </mxCell>
        <mxCell id="W0UDvC0KFwE0tktNI8-N-23" value="&lt;div&gt;Azure Functions&amp;nbsp;&lt;/div&gt;&lt;div&gt;Azure Automation&amp;nbsp;&lt;/div&gt;&lt;div&gt;Event Hubs&amp;nbsp;&lt;/div&gt;&lt;div&gt;Logic Apps&amp;nbsp;&lt;/div&gt;&lt;div&gt;Storage Blob&amp;nbsp;&lt;/div&gt;&lt;div&gt;Custom Topics&amp;nbsp;&lt;/div&gt;&lt;div&gt;Queue Storage&amp;nbsp;&lt;/div&gt;&lt;div&gt;Power Automate&amp;nbsp;&lt;/div&gt;&lt;div&gt;Third-party services through WebHooks&amp;nbsp;&lt;/div&gt;" style="edgeLabel;html=1;align=center;verticalAlign=middle;resizable=0;points=[];" vertex="1" connectable="0" parent="W0UDvC0KFwE0tktNI8-N-22">
          <mxGeometry x="-0.386" y="2" relative="1" as="geometry">
            <mxPoint as="offset" />
          </mxGeometry>
        </mxCell>
        <mxCell id="W0UDvC0KFwE0tktNI8-N-24" value="For &lt;b&gt;Who&lt;/b&gt;?" style="rhombus;whiteSpace=wrap;html=1;shadow=0;fontFamily=Helvetica;fontSize=12;align=center;strokeWidth=1;spacing=6;spacingTop=-4;" vertex="1" parent="WIyWlLk6GJQsqaUBKTNV-1">
          <mxGeometry x="150" y="230" width="100" height="80" as="geometry" />
        </mxCell>
        <mxCell id="W0UDvC0KFwE0tktNI8-N-25" value="&amp;nbsp;IoT Hub message routing" style="rounded=1;whiteSpace=wrap;html=1;fontSize=12;glass=0;strokeWidth=1;shadow=0;" vertex="1" parent="WIyWlLk6GJQsqaUBKTNV-1">
          <mxGeometry x="-70" y="330" width="120" height="40" as="geometry" />
        </mxCell>
        <mxCell id="W0UDvC0KFwE0tktNI8-N-26" value="IoT Hub integration with Event Grid" style="rounded=1;whiteSpace=wrap;html=1;fontSize=12;glass=0;strokeWidth=1;shadow=0;" vertex="1" parent="WIyWlLk6GJQsqaUBKTNV-1">
          <mxGeometry x="490" y="330" width="120" height="40" as="geometry" />
        </mxCell>
        <mxCell id="W0UDvC0KFwE0tktNI8-N-27" style="edgeStyle=orthogonalEdgeStyle;rounded=0;orthogonalLoop=1;jettySize=auto;html=1;exitX=0;exitY=0.5;exitDx=0;exitDy=0;entryX=0.5;entryY=0;entryDx=0;entryDy=0;" edge="1" parent="WIyWlLk6GJQsqaUBKTNV-1" source="W0UDvC0KFwE0tktNI8-N-31" target="W0UDvC0KFwE0tktNI8-N-32">
          <mxGeometry relative="1" as="geometry" />
        </mxCell>
        <mxCell id="W0UDvC0KFwE0tktNI8-N-28" value="Ordered Events&lt;br&gt;Order matters" style="edgeLabel;html=1;align=center;verticalAlign=middle;resizable=0;points=[];" vertex="1" connectable="0" parent="W0UDvC0KFwE0tktNI8-N-27">
          <mxGeometry x="-0.2111" y="1" relative="1" as="geometry">
            <mxPoint as="offset" />
          </mxGeometry>
        </mxCell>
        <mxCell id="W0UDvC0KFwE0tktNI8-N-29" style="edgeStyle=orthogonalEdgeStyle;rounded=0;orthogonalLoop=1;jettySize=auto;html=1;exitX=1;exitY=0.5;exitDx=0;exitDy=0;entryX=0.5;entryY=0;entryDx=0;entryDy=0;" edge="1" parent="WIyWlLk6GJQsqaUBKTNV-1" source="W0UDvC0KFwE0tktNI8-N-31" target="W0UDvC0KFwE0tktNI8-N-33">
          <mxGeometry relative="1" as="geometry" />
        </mxCell>
        <mxCell id="W0UDvC0KFwE0tktNI8-N-30" value="Ordered Events&lt;br&gt;are not a requirement" style="edgeLabel;html=1;align=center;verticalAlign=middle;resizable=0;points=[];" vertex="1" connectable="0" parent="W0UDvC0KFwE0tktNI8-N-29">
          <mxGeometry x="-0.386" y="2" relative="1" as="geometry">
            <mxPoint as="offset" />
          </mxGeometry>
        </mxCell>
        <mxCell id="W0UDvC0KFwE0tktNI8-N-31" value="&lt;b&gt;How?&lt;/b&gt;" style="rhombus;whiteSpace=wrap;html=1;shadow=0;fontFamily=Helvetica;fontSize=12;align=center;strokeWidth=1;spacing=6;spacingTop=-4;" vertex="1" parent="WIyWlLk6GJQsqaUBKTNV-1">
          <mxGeometry x="140" y="380" width="100" height="80" as="geometry" />
        </mxCell>
        <mxCell id="W0UDvC0KFwE0tktNI8-N-32" value="&amp;nbsp;IoT Hub message routing" style="rounded=1;whiteSpace=wrap;html=1;fontSize=12;glass=0;strokeWidth=1;shadow=0;" vertex="1" parent="WIyWlLk6GJQsqaUBKTNV-1">
          <mxGeometry x="-80" y="480" width="120" height="40" as="geometry" />
        </mxCell>
        <mxCell id="W0UDvC0KFwE0tktNI8-N-33" value="IoT Hub integration with Event Grid" style="rounded=1;whiteSpace=wrap;html=1;fontSize=12;glass=0;strokeWidth=1;shadow=0;" vertex="1" parent="WIyWlLk6GJQsqaUBKTNV-1">
          <mxGeometry x="360" y="480" width="120" height="40" as="geometry" />
        </mxCell>
      </root>
    </mxGraphModel>
  </diagram>
  <diagram id="X5pfR_SudEPqM6aDpp9W" name="Page-2">
    <mxGraphModel dx="2894" dy="936" grid="1" gridSize="10" guides="1" tooltips="1" connect="1" arrows="1" fold="1" page="1" pageScale="1" pageWidth="850" pageHeight="1100" math="0" shadow="0">
      <root>
        <mxCell id="0" />
        <mxCell id="1" parent="0" />
        <mxCell id="_TjgJpDyAFJxN3ypCaDL-41" style="edgeStyle=orthogonalEdgeStyle;rounded=0;orthogonalLoop=1;jettySize=auto;html=1;exitX=1;exitY=0.5;exitDx=0;exitDy=0;entryX=0;entryY=0.5;entryDx=0;entryDy=0;fontSize=18;" edge="1" parent="1" source="_TjgJpDyAFJxN3ypCaDL-1" target="_TjgJpDyAFJxN3ypCaDL-4">
          <mxGeometry relative="1" as="geometry">
            <Array as="points">
              <mxPoint x="80" y="680" />
              <mxPoint x="80" y="105" />
            </Array>
          </mxGeometry>
        </mxCell>
        <mxCell id="_TjgJpDyAFJxN3ypCaDL-62" value="Custom Endpoint |&amp;nbsp;Event Grid" style="edgeLabel;html=1;align=center;verticalAlign=middle;resizable=0;points=[];fontSize=18;" vertex="1" connectable="0" parent="_TjgJpDyAFJxN3ypCaDL-41">
          <mxGeometry x="0.6658" y="2" relative="1" as="geometry">
            <mxPoint as="offset" />
          </mxGeometry>
        </mxCell>
        <mxCell id="_TjgJpDyAFJxN3ypCaDL-42" style="edgeStyle=orthogonalEdgeStyle;rounded=0;orthogonalLoop=1;jettySize=auto;html=1;exitX=1;exitY=0.5;exitDx=0;exitDy=0;entryX=0;entryY=0.5;entryDx=0;entryDy=0;fontSize=18;" edge="1" parent="1" source="_TjgJpDyAFJxN3ypCaDL-1" target="_TjgJpDyAFJxN3ypCaDL-7">
          <mxGeometry relative="1" as="geometry">
            <Array as="points">
              <mxPoint x="80" y="680" />
              <mxPoint x="80" y="181" />
              <mxPoint x="450" y="181" />
            </Array>
          </mxGeometry>
        </mxCell>
        <mxCell id="_TjgJpDyAFJxN3ypCaDL-63" value="Custom Endpoint" style="edgeLabel;html=1;align=center;verticalAlign=middle;resizable=0;points=[];fontSize=18;" vertex="1" connectable="0" parent="_TjgJpDyAFJxN3ypCaDL-42">
          <mxGeometry x="0.6481" y="2" relative="1" as="geometry">
            <mxPoint x="-1" as="offset" />
          </mxGeometry>
        </mxCell>
        <mxCell id="_TjgJpDyAFJxN3ypCaDL-44" style="edgeStyle=orthogonalEdgeStyle;rounded=0;orthogonalLoop=1;jettySize=auto;html=1;exitX=1;exitY=0.5;exitDx=0;exitDy=0;entryX=0.003;entryY=-0.043;entryDx=0;entryDy=0;entryPerimeter=0;fontSize=18;" edge="1" parent="1" source="_TjgJpDyAFJxN3ypCaDL-1" target="_TjgJpDyAFJxN3ypCaDL-11">
          <mxGeometry relative="1" as="geometry">
            <Array as="points">
              <mxPoint x="80" y="680" />
              <mxPoint x="80" y="269" />
            </Array>
          </mxGeometry>
        </mxCell>
        <mxCell id="_TjgJpDyAFJxN3ypCaDL-64" value="Custom Endpoint |&amp;nbsp;Event Grid" style="edgeLabel;html=1;align=center;verticalAlign=middle;resizable=0;points=[];fontSize=18;" vertex="1" connectable="0" parent="_TjgJpDyAFJxN3ypCaDL-44">
          <mxGeometry x="0.5884" y="-2" relative="1" as="geometry">
            <mxPoint as="offset" />
          </mxGeometry>
        </mxCell>
        <mxCell id="_TjgJpDyAFJxN3ypCaDL-45" style="edgeStyle=orthogonalEdgeStyle;rounded=0;orthogonalLoop=1;jettySize=auto;html=1;exitX=1;exitY=0.5;exitDx=0;exitDy=0;entryX=0.001;entryY=0.444;entryDx=0;entryDy=0;entryPerimeter=0;fontSize=18;" edge="1" parent="1" source="_TjgJpDyAFJxN3ypCaDL-1" target="_TjgJpDyAFJxN3ypCaDL-13">
          <mxGeometry relative="1" as="geometry">
            <Array as="points">
              <mxPoint x="80" y="680" />
              <mxPoint x="80" y="347" />
            </Array>
          </mxGeometry>
        </mxCell>
        <mxCell id="_TjgJpDyAFJxN3ypCaDL-65" value="Built-in Endpoint |&amp;nbsp;Event Grid" style="edgeLabel;html=1;align=center;verticalAlign=middle;resizable=0;points=[];fontSize=18;" vertex="1" connectable="0" parent="_TjgJpDyAFJxN3ypCaDL-45">
          <mxGeometry x="0.5822" y="2" relative="1" as="geometry">
            <mxPoint as="offset" />
          </mxGeometry>
        </mxCell>
        <mxCell id="_TjgJpDyAFJxN3ypCaDL-49" style="edgeStyle=orthogonalEdgeStyle;rounded=0;orthogonalLoop=1;jettySize=auto;html=1;exitX=1;exitY=0.5;exitDx=0;exitDy=0;fontSize=18;" edge="1" parent="1" source="_TjgJpDyAFJxN3ypCaDL-1">
          <mxGeometry relative="1" as="geometry">
            <mxPoint x="500" y="431" as="targetPoint" />
            <Array as="points">
              <mxPoint x="80" y="680" />
              <mxPoint x="80" y="431" />
            </Array>
          </mxGeometry>
        </mxCell>
        <mxCell id="_TjgJpDyAFJxN3ypCaDL-66" value="Built-in Endpoint" style="edgeLabel;html=1;align=center;verticalAlign=middle;resizable=0;points=[];fontSize=18;" vertex="1" connectable="0" parent="_TjgJpDyAFJxN3ypCaDL-49">
          <mxGeometry x="0.5017" y="3" relative="1" as="geometry">
            <mxPoint x="-1" as="offset" />
          </mxGeometry>
        </mxCell>
        <mxCell id="_TjgJpDyAFJxN3ypCaDL-50" style="edgeStyle=orthogonalEdgeStyle;rounded=0;orthogonalLoop=1;jettySize=auto;html=1;exitX=1;exitY=0.5;exitDx=0;exitDy=0;entryX=0.002;entryY=0.037;entryDx=0;entryDy=0;entryPerimeter=0;fontSize=18;" edge="1" parent="1" source="_TjgJpDyAFJxN3ypCaDL-1" target="_TjgJpDyAFJxN3ypCaDL-18">
          <mxGeometry relative="1" as="geometry">
            <Array as="points">
              <mxPoint x="80" y="680" />
              <mxPoint x="80" y="511" />
            </Array>
          </mxGeometry>
        </mxCell>
        <mxCell id="_TjgJpDyAFJxN3ypCaDL-67" value="Built-in Endpoint" style="edgeLabel;html=1;align=center;verticalAlign=middle;resizable=0;points=[];fontSize=18;" vertex="1" connectable="0" parent="_TjgJpDyAFJxN3ypCaDL-50">
          <mxGeometry x="0.4503" y="3" relative="1" as="geometry">
            <mxPoint x="-1" as="offset" />
          </mxGeometry>
        </mxCell>
        <mxCell id="_TjgJpDyAFJxN3ypCaDL-51" style="edgeStyle=orthogonalEdgeStyle;rounded=0;orthogonalLoop=1;jettySize=auto;html=1;exitX=1;exitY=0.5;exitDx=0;exitDy=0;entryX=-0.016;entryY=-0.037;entryDx=0;entryDy=0;entryPerimeter=0;fontSize=18;" edge="1" parent="1" source="_TjgJpDyAFJxN3ypCaDL-1" target="_TjgJpDyAFJxN3ypCaDL-22">
          <mxGeometry relative="1" as="geometry">
            <Array as="points">
              <mxPoint x="80" y="680" />
              <mxPoint x="80" y="589" />
            </Array>
          </mxGeometry>
        </mxCell>
        <mxCell id="_TjgJpDyAFJxN3ypCaDL-68" value="Built-in Endpoint" style="edgeLabel;html=1;align=center;verticalAlign=middle;resizable=0;points=[];fontSize=18;" vertex="1" connectable="0" parent="_TjgJpDyAFJxN3ypCaDL-51">
          <mxGeometry x="0.422" y="4" relative="1" as="geometry">
            <mxPoint as="offset" />
          </mxGeometry>
        </mxCell>
        <mxCell id="_TjgJpDyAFJxN3ypCaDL-52" style="edgeStyle=orthogonalEdgeStyle;rounded=0;orthogonalLoop=1;jettySize=auto;html=1;exitX=1;exitY=0.5;exitDx=0;exitDy=0;entryX=-0.013;entryY=0.111;entryDx=0;entryDy=0;entryPerimeter=0;fontSize=18;" edge="1" parent="1" source="_TjgJpDyAFJxN3ypCaDL-1" target="_TjgJpDyAFJxN3ypCaDL-24">
          <mxGeometry relative="1" as="geometry" />
        </mxCell>
        <mxCell id="_TjgJpDyAFJxN3ypCaDL-69" value="Built-in Endpoint" style="edgeLabel;html=1;align=center;verticalAlign=middle;resizable=0;points=[];fontSize=18;" vertex="1" connectable="0" parent="_TjgJpDyAFJxN3ypCaDL-52">
          <mxGeometry x="0.3921" relative="1" as="geometry">
            <mxPoint as="offset" />
          </mxGeometry>
        </mxCell>
        <mxCell id="_TjgJpDyAFJxN3ypCaDL-53" style="edgeStyle=orthogonalEdgeStyle;rounded=0;orthogonalLoop=1;jettySize=auto;html=1;exitX=1;exitY=0.5;exitDx=0;exitDy=0;entryX=0.002;entryY=0.056;entryDx=0;entryDy=0;entryPerimeter=0;fontSize=18;" edge="1" parent="1" source="_TjgJpDyAFJxN3ypCaDL-1" target="_TjgJpDyAFJxN3ypCaDL-26">
          <mxGeometry relative="1" as="geometry">
            <Array as="points">
              <mxPoint x="80" y="680" />
              <mxPoint x="80" y="747" />
            </Array>
          </mxGeometry>
        </mxCell>
        <mxCell id="_TjgJpDyAFJxN3ypCaDL-70" value="Built-in Endpoint" style="edgeLabel;html=1;align=center;verticalAlign=middle;resizable=0;points=[];fontSize=18;" vertex="1" connectable="0" parent="_TjgJpDyAFJxN3ypCaDL-53">
          <mxGeometry x="0.3528" y="-3" relative="1" as="geometry">
            <mxPoint as="offset" />
          </mxGeometry>
        </mxCell>
        <mxCell id="_TjgJpDyAFJxN3ypCaDL-54" style="edgeStyle=orthogonalEdgeStyle;rounded=0;orthogonalLoop=1;jettySize=auto;html=1;exitX=1;exitY=0.5;exitDx=0;exitDy=0;entryX=0.002;entryY=0.074;entryDx=0;entryDy=0;entryPerimeter=0;fontSize=18;" edge="1" parent="1" source="_TjgJpDyAFJxN3ypCaDL-1" target="_TjgJpDyAFJxN3ypCaDL-28">
          <mxGeometry relative="1" as="geometry">
            <Array as="points">
              <mxPoint x="80" y="680" />
              <mxPoint x="80" y="822" />
            </Array>
          </mxGeometry>
        </mxCell>
        <mxCell id="_TjgJpDyAFJxN3ypCaDL-71" value="Built-in Endpoint" style="edgeLabel;html=1;align=center;verticalAlign=middle;resizable=0;points=[];fontSize=18;" vertex="1" connectable="0" parent="_TjgJpDyAFJxN3ypCaDL-54">
          <mxGeometry x="0.4636" y="6" relative="1" as="geometry">
            <mxPoint x="-1" as="offset" />
          </mxGeometry>
        </mxCell>
        <mxCell id="_TjgJpDyAFJxN3ypCaDL-55" style="edgeStyle=orthogonalEdgeStyle;rounded=0;orthogonalLoop=1;jettySize=auto;html=1;exitX=1;exitY=0.5;exitDx=0;exitDy=0;entryX=-0.031;entryY=0.074;entryDx=0;entryDy=0;entryPerimeter=0;fontSize=18;" edge="1" parent="1">
          <mxGeometry relative="1" as="geometry">
            <mxPoint x="-14.73" y="680" as="sourcePoint" />
            <mxPoint x="490" y="902.22" as="targetPoint" />
            <Array as="points">
              <mxPoint x="80.27" y="680" />
              <mxPoint x="80.27" y="902" />
            </Array>
          </mxGeometry>
        </mxCell>
        <mxCell id="_TjgJpDyAFJxN3ypCaDL-61" value="Event Grid" style="edgeLabel;html=1;align=center;verticalAlign=middle;resizable=0;points=[];fontSize=18;" vertex="1" connectable="0" parent="_TjgJpDyAFJxN3ypCaDL-55">
          <mxGeometry x="0.3688" y="-1" relative="1" as="geometry">
            <mxPoint x="41" y="-1" as="offset" />
          </mxGeometry>
        </mxCell>
        <mxCell id="_TjgJpDyAFJxN3ypCaDL-56" style="edgeStyle=orthogonalEdgeStyle;rounded=0;orthogonalLoop=1;jettySize=auto;html=1;exitX=1;exitY=0.5;exitDx=0;exitDy=0;entryX=-0.005;entryY=0.037;entryDx=0;entryDy=0;entryPerimeter=0;fontSize=18;" edge="1" parent="1" source="_TjgJpDyAFJxN3ypCaDL-1" target="_TjgJpDyAFJxN3ypCaDL-32">
          <mxGeometry relative="1" as="geometry">
            <Array as="points">
              <mxPoint x="80" y="680" />
              <mxPoint x="80" y="981" />
            </Array>
          </mxGeometry>
        </mxCell>
        <mxCell id="_TjgJpDyAFJxN3ypCaDL-72" value="Event Grid" style="edgeLabel;html=1;align=center;verticalAlign=middle;resizable=0;points=[];fontSize=18;" vertex="1" connectable="0" parent="_TjgJpDyAFJxN3ypCaDL-56">
          <mxGeometry x="0.5916" relative="1" as="geometry">
            <mxPoint x="-24" y="-1" as="offset" />
          </mxGeometry>
        </mxCell>
        <mxCell id="_TjgJpDyAFJxN3ypCaDL-57" style="edgeStyle=orthogonalEdgeStyle;rounded=0;orthogonalLoop=1;jettySize=auto;html=1;exitX=1;exitY=0.5;exitDx=0;exitDy=0;entryX=-0.031;entryY=0.148;entryDx=0;entryDy=0;entryPerimeter=0;fontSize=18;" edge="1" parent="1">
          <mxGeometry relative="1" as="geometry">
            <mxPoint x="-15" y="682" as="sourcePoint" />
            <mxPoint x="489.73" y="1066.44" as="targetPoint" />
            <Array as="points">
              <mxPoint x="-15" y="680" />
              <mxPoint x="80" y="680" />
              <mxPoint x="80" y="1066" />
            </Array>
          </mxGeometry>
        </mxCell>
        <mxCell id="_TjgJpDyAFJxN3ypCaDL-73" value="Event Grid" style="edgeLabel;html=1;align=center;verticalAlign=middle;resizable=0;points=[];fontSize=18;" vertex="1" connectable="0" parent="_TjgJpDyAFJxN3ypCaDL-57">
          <mxGeometry x="0.6189" y="7" relative="1" as="geometry">
            <mxPoint x="-21" as="offset" />
          </mxGeometry>
        </mxCell>
        <mxCell id="_TjgJpDyAFJxN3ypCaDL-58" style="edgeStyle=orthogonalEdgeStyle;rounded=0;orthogonalLoop=1;jettySize=auto;html=1;exitX=1;exitY=0.5;exitDx=0;exitDy=0;entryX=-0.018;entryY=-0.037;entryDx=0;entryDy=0;entryPerimeter=0;fontSize=18;" edge="1" parent="1" source="_TjgJpDyAFJxN3ypCaDL-1" target="_TjgJpDyAFJxN3ypCaDL-36">
          <mxGeometry relative="1" as="geometry">
            <Array as="points">
              <mxPoint x="80" y="680" />
              <mxPoint x="80" y="1139" />
            </Array>
          </mxGeometry>
        </mxCell>
        <mxCell id="_TjgJpDyAFJxN3ypCaDL-74" value="Event Grid" style="edgeLabel;html=1;align=center;verticalAlign=middle;resizable=0;points=[];fontSize=18;" vertex="1" connectable="0" parent="_TjgJpDyAFJxN3ypCaDL-58">
          <mxGeometry x="0.6653" y="-2" relative="1" as="geometry">
            <mxPoint x="-24" y="-1" as="offset" />
          </mxGeometry>
        </mxCell>
        <mxCell id="_TjgJpDyAFJxN3ypCaDL-59" style="edgeStyle=orthogonalEdgeStyle;rounded=0;orthogonalLoop=1;jettySize=auto;html=1;exitX=1;exitY=0.5;exitDx=0;exitDy=0;entryX=-0.005;entryY=0.037;entryDx=0;entryDy=0;entryPerimeter=0;fontSize=18;" edge="1" parent="1" source="_TjgJpDyAFJxN3ypCaDL-1" target="_TjgJpDyAFJxN3ypCaDL-38">
          <mxGeometry relative="1" as="geometry">
            <Array as="points">
              <mxPoint x="80" y="680" />
              <mxPoint x="80" y="1221" />
            </Array>
          </mxGeometry>
        </mxCell>
        <mxCell id="_TjgJpDyAFJxN3ypCaDL-75" value="Event Grid" style="edgeLabel;html=1;align=center;verticalAlign=middle;resizable=0;points=[];fontSize=18;" vertex="1" connectable="0" parent="_TjgJpDyAFJxN3ypCaDL-59">
          <mxGeometry x="0.6912" y="2" relative="1" as="geometry">
            <mxPoint x="-27" y="1" as="offset" />
          </mxGeometry>
        </mxCell>
        <mxCell id="_TjgJpDyAFJxN3ypCaDL-60" style="edgeStyle=orthogonalEdgeStyle;rounded=0;orthogonalLoop=1;jettySize=auto;html=1;exitX=1;exitY=0.5;exitDx=0;exitDy=0;entryX=-0.018;entryY=-0.037;entryDx=0;entryDy=0;entryPerimeter=0;fontSize=18;" edge="1" parent="1" source="_TjgJpDyAFJxN3ypCaDL-1" target="_TjgJpDyAFJxN3ypCaDL-40">
          <mxGeometry relative="1" as="geometry">
            <Array as="points">
              <mxPoint x="80" y="680" />
              <mxPoint x="80" y="1299" />
            </Array>
          </mxGeometry>
        </mxCell>
        <mxCell id="_TjgJpDyAFJxN3ypCaDL-76" value="Event Grid" style="edgeLabel;html=1;align=center;verticalAlign=middle;resizable=0;points=[];fontSize=18;" vertex="1" connectable="0" parent="_TjgJpDyAFJxN3ypCaDL-60">
          <mxGeometry x="0.7159" y="4" relative="1" as="geometry">
            <mxPoint x="-28" as="offset" />
          </mxGeometry>
        </mxCell>
        <mxCell id="_TjgJpDyAFJxN3ypCaDL-1" value="&lt;font style=&quot;font-size: 18px&quot;&gt;IOT HUB&lt;/font&gt;" style="shape=step;perimeter=stepPerimeter;whiteSpace=wrap;html=1;fixedSize=1;fontSize=6;" vertex="1" parent="1">
          <mxGeometry x="-140" y="640" width="120" height="80" as="geometry" />
        </mxCell>
        <mxCell id="_TjgJpDyAFJxN3ypCaDL-3" value="Event Hub" style="swimlane;fontStyle=0;childLayout=stackLayout;horizontal=1;startSize=30;horizontalStack=0;resizeParent=1;resizeParentMax=0;resizeLast=0;collapsible=1;marginBottom=0;fontSize=18;" vertex="1" parent="1">
          <mxGeometry x="500" y="60" width="480" height="60" as="geometry" />
        </mxCell>
        <mxCell id="_TjgJpDyAFJxN3ypCaDL-4" value="Big data streaming platform and event ingestion service.." style="text;strokeColor=none;fillColor=none;align=left;verticalAlign=middle;spacingLeft=4;spacingRight=4;overflow=hidden;points=[[0,0.5],[1,0.5]];portConstraint=eastwest;rotatable=0;fontSize=18;" vertex="1" parent="_TjgJpDyAFJxN3ypCaDL-3">
          <mxGeometry y="30" width="480" height="30" as="geometry" />
        </mxCell>
        <mxCell id="_TjgJpDyAFJxN3ypCaDL-7" value="Service Bus Messaging&#xa;Queue | Topic" style="swimlane;fontStyle=0;childLayout=stackLayout;horizontal=1;startSize=50;horizontalStack=0;resizeParent=1;resizeParentMax=0;resizeLast=0;collapsible=1;marginBottom=0;fontSize=18;" vertex="1" parent="1">
          <mxGeometry x="450" y="140" width="560" height="80" as="geometry" />
        </mxCell>
        <mxCell id="_TjgJpDyAFJxN3ypCaDL-8" value=" Message broker with message queues and publish-subscribe topics. " style="text;strokeColor=none;fillColor=none;align=left;verticalAlign=middle;spacingLeft=4;spacingRight=4;overflow=hidden;points=[[0,0.5],[1,0.5]];portConstraint=eastwest;rotatable=0;fontSize=18;" vertex="1" parent="_TjgJpDyAFJxN3ypCaDL-7">
          <mxGeometry y="50" width="560" height="30" as="geometry" />
        </mxCell>
        <mxCell id="_TjgJpDyAFJxN3ypCaDL-10" value="Storage Blob/DL" style="swimlane;fontStyle=0;childLayout=stackLayout;horizontal=1;startSize=30;horizontalStack=0;resizeParent=1;resizeParentMax=0;resizeLast=0;collapsible=1;marginBottom=0;fontSize=18;" vertex="1" parent="1">
          <mxGeometry x="500" y="240" width="140" height="60" as="geometry" />
        </mxCell>
        <mxCell id="_TjgJpDyAFJxN3ypCaDL-11" value="Storage service." style="text;strokeColor=none;fillColor=none;align=left;verticalAlign=middle;spacingLeft=4;spacingRight=4;overflow=hidden;points=[[0,0.5],[1,0.5]];portConstraint=eastwest;rotatable=0;fontSize=18;" vertex="1" parent="_TjgJpDyAFJxN3ypCaDL-10">
          <mxGeometry y="30" width="140" height="30" as="geometry" />
        </mxCell>
        <mxCell id="_TjgJpDyAFJxN3ypCaDL-13" value="Azure Functions" style="swimlane;fontStyle=0;childLayout=stackLayout;horizontal=1;startSize=30;horizontalStack=0;resizeParent=1;resizeParentMax=0;resizeLast=0;collapsible=1;marginBottom=0;fontSize=18;" vertex="1" parent="1">
          <mxGeometry x="500" y="320" width="270" height="60" as="geometry" />
        </mxCell>
        <mxCell id="_TjgJpDyAFJxN3ypCaDL-14" value="Serverless Function Resource." style="text;strokeColor=none;fillColor=none;align=left;verticalAlign=middle;spacingLeft=4;spacingRight=4;overflow=hidden;points=[[0,0.5],[1,0.5]];portConstraint=eastwest;rotatable=0;fontSize=18;" vertex="1" parent="_TjgJpDyAFJxN3ypCaDL-13">
          <mxGeometry y="30" width="270" height="30" as="geometry" />
        </mxCell>
        <mxCell id="_TjgJpDyAFJxN3ypCaDL-15" value="Stream Analytics" style="swimlane;fontStyle=0;childLayout=stackLayout;horizontal=1;startSize=30;horizontalStack=0;resizeParent=1;resizeParentMax=0;resizeLast=0;collapsible=1;marginBottom=0;fontSize=18;" vertex="1" parent="1">
          <mxGeometry x="500" y="400" width="480" height="60" as="geometry" />
        </mxCell>
        <mxCell id="_TjgJpDyAFJxN3ypCaDL-16" value="Real-time analytics and complex event-processing engine." style="text;strokeColor=none;fillColor=none;align=left;verticalAlign=middle;spacingLeft=4;spacingRight=4;overflow=hidden;points=[[0,0.5],[1,0.5]];portConstraint=eastwest;rotatable=0;fontSize=18;" vertex="1" parent="_TjgJpDyAFJxN3ypCaDL-15">
          <mxGeometry y="30" width="480" height="30" as="geometry" />
        </mxCell>
        <mxCell id="_TjgJpDyAFJxN3ypCaDL-17" value="Time Series Insights" style="swimlane;fontStyle=0;childLayout=stackLayout;horizontal=1;startSize=30;horizontalStack=0;resizeParent=1;resizeParentMax=0;resizeLast=0;collapsible=1;marginBottom=0;fontSize=18;" vertex="1" parent="1">
          <mxGeometry x="490" y="480" width="480" height="60" as="geometry" />
        </mxCell>
        <mxCell id="_TjgJpDyAFJxN3ypCaDL-18" value="Collect, process, store, query and visualize data from IoT." style="text;strokeColor=none;fillColor=none;align=left;verticalAlign=middle;spacingLeft=4;spacingRight=4;overflow=hidden;points=[[0,0.5],[1,0.5]];portConstraint=eastwest;rotatable=0;fontSize=18;" vertex="1" parent="_TjgJpDyAFJxN3ypCaDL-17">
          <mxGeometry y="30" width="480" height="30" as="geometry" />
        </mxCell>
        <mxCell id="_TjgJpDyAFJxN3ypCaDL-21" value="Apache Storm spout" style="swimlane;fontStyle=0;childLayout=stackLayout;horizontal=1;startSize=30;horizontalStack=0;resizeParent=1;resizeParentMax=0;resizeLast=0;collapsible=1;marginBottom=0;fontSize=18;" vertex="1" parent="1">
          <mxGeometry x="480" y="560" width="510" height="60" as="geometry" />
        </mxCell>
        <mxCell id="_TjgJpDyAFJxN3ypCaDL-22" value="Free and open source distributed realtime computation system." style="text;strokeColor=none;fillColor=none;align=left;verticalAlign=middle;spacingLeft=4;spacingRight=4;overflow=hidden;points=[[0,0.5],[1,0.5]];portConstraint=eastwest;rotatable=0;fontSize=18;" vertex="1" parent="_TjgJpDyAFJxN3ypCaDL-21">
          <mxGeometry y="30" width="510" height="30" as="geometry" />
        </mxCell>
        <mxCell id="_TjgJpDyAFJxN3ypCaDL-23" value="Apache Spark integration" style="swimlane;fontStyle=0;childLayout=stackLayout;horizontal=1;startSize=30;horizontalStack=0;resizeParent=1;resizeParentMax=0;resizeLast=0;collapsible=1;marginBottom=0;fontSize=18;" vertex="1" parent="1">
          <mxGeometry x="460" y="646" width="500" height="60" as="geometry" />
        </mxCell>
        <mxCell id="_TjgJpDyAFJxN3ypCaDL-24" value="Open Source Framework suitable for Big Data Applications." style="text;strokeColor=none;fillColor=none;align=left;verticalAlign=middle;spacingLeft=4;spacingRight=4;overflow=hidden;points=[[0,0.5],[1,0.5]];portConstraint=eastwest;rotatable=0;fontSize=18;" vertex="1" parent="_TjgJpDyAFJxN3ypCaDL-23">
          <mxGeometry y="30" width="500" height="30" as="geometry" />
        </mxCell>
        <mxCell id="_TjgJpDyAFJxN3ypCaDL-25" value="Apache Kafka" style="swimlane;fontStyle=0;childLayout=stackLayout;horizontal=1;startSize=30;horizontalStack=0;resizeParent=1;resizeParentMax=0;resizeLast=0;collapsible=1;marginBottom=0;fontSize=18;" vertex="1" parent="1">
          <mxGeometry x="500" y="715" width="420" height="60" as="geometry" />
        </mxCell>
        <mxCell id="_TjgJpDyAFJxN3ypCaDL-26" value=" Open source distributed event streaming platform." style="text;strokeColor=none;fillColor=none;align=left;verticalAlign=middle;spacingLeft=4;spacingRight=4;overflow=hidden;points=[[0,0.5],[1,0.5]];portConstraint=eastwest;rotatable=0;fontSize=18;" vertex="1" parent="_TjgJpDyAFJxN3ypCaDL-25">
          <mxGeometry y="30" width="420" height="30" as="geometry" />
        </mxCell>
        <mxCell id="_TjgJpDyAFJxN3ypCaDL-27" value="Azure Databricks" style="swimlane;fontStyle=0;childLayout=stackLayout;horizontal=1;startSize=30;horizontalStack=0;resizeParent=1;resizeParentMax=0;resizeLast=0;collapsible=1;marginBottom=0;fontSize=18;" vertex="1" parent="1">
          <mxGeometry x="490" y="790" width="630" height="60" as="geometry" />
        </mxCell>
        <mxCell id="_TjgJpDyAFJxN3ypCaDL-28" value="Data analytics platform multi-featured. (Data Engineering, Science, ML, etc.)" style="text;strokeColor=none;fillColor=none;align=left;verticalAlign=middle;spacingLeft=4;spacingRight=4;overflow=hidden;points=[[0,0.5],[1,0.5]];portConstraint=eastwest;rotatable=0;fontSize=18;" vertex="1" parent="_TjgJpDyAFJxN3ypCaDL-27">
          <mxGeometry y="30" width="630" height="30" as="geometry" />
        </mxCell>
        <mxCell id="_TjgJpDyAFJxN3ypCaDL-29" value="Azure Automation" style="swimlane;fontStyle=0;childLayout=stackLayout;horizontal=1;startSize=30;horizontalStack=0;resizeParent=1;resizeParentMax=0;resizeLast=0;collapsible=1;marginBottom=0;fontSize=18;" vertex="1" parent="1">
          <mxGeometry x="490" y="870" width="290" height="60" as="geometry" />
        </mxCell>
        <mxCell id="_TjgJpDyAFJxN3ypCaDL-30" value="Cloud based Automation resource." style="text;strokeColor=none;fillColor=none;align=left;verticalAlign=middle;spacingLeft=4;spacingRight=4;overflow=hidden;points=[[0,0.5],[1,0.5]];portConstraint=eastwest;rotatable=0;fontSize=18;" vertex="1" parent="_TjgJpDyAFJxN3ypCaDL-29">
          <mxGeometry y="30" width="290" height="30" as="geometry" />
        </mxCell>
        <mxCell id="_TjgJpDyAFJxN3ypCaDL-31" value="Logic Apps" style="swimlane;fontStyle=0;childLayout=stackLayout;horizontal=1;startSize=30;horizontalStack=0;resizeParent=1;resizeParentMax=0;resizeLast=0;collapsible=1;marginBottom=0;fontSize=18;" vertex="1" parent="1">
          <mxGeometry x="490" y="949" width="580" height="80" as="geometry" />
        </mxCell>
        <mxCell id="_TjgJpDyAFJxN3ypCaDL-32" value="Cloud Based platform for creating and running automated workflows&#xa; that integrate your apps, data, services, and systems. " style="text;strokeColor=none;fillColor=none;align=left;verticalAlign=middle;spacingLeft=4;spacingRight=4;overflow=hidden;points=[[0,0.5],[1,0.5]];portConstraint=eastwest;rotatable=0;fontSize=18;" vertex="1" parent="_TjgJpDyAFJxN3ypCaDL-31">
          <mxGeometry y="30" width="580" height="50" as="geometry" />
        </mxCell>
        <mxCell id="_TjgJpDyAFJxN3ypCaDL-33" value="Custom Topics" style="swimlane;fontStyle=0;childLayout=stackLayout;horizontal=1;startSize=30;horizontalStack=0;resizeParent=1;resizeParentMax=0;resizeLast=0;collapsible=1;marginBottom=0;fontSize=18;" vertex="1" parent="1">
          <mxGeometry x="490" y="1041" width="410" height="60" as="geometry" />
        </mxCell>
        <mxCell id="_TjgJpDyAFJxN3ypCaDL-34" value="Custom Topic in Event Gride for publishing event." style="text;strokeColor=none;fillColor=none;align=left;verticalAlign=middle;spacingLeft=4;spacingRight=4;overflow=hidden;points=[[0,0.5],[1,0.5]];portConstraint=eastwest;rotatable=0;fontSize=18;" vertex="1" parent="_TjgJpDyAFJxN3ypCaDL-33">
          <mxGeometry y="30" width="410" height="30" as="geometry" />
        </mxCell>
        <mxCell id="_TjgJpDyAFJxN3ypCaDL-35" value="Queue Storage" style="swimlane;fontStyle=0;childLayout=stackLayout;horizontal=1;startSize=30;horizontalStack=0;resizeParent=1;resizeParentMax=0;resizeLast=0;collapsible=1;marginBottom=0;fontSize=18;" vertex="1" parent="1">
          <mxGeometry x="490" y="1110" width="400" height="60" as="geometry" />
        </mxCell>
        <mxCell id="_TjgJpDyAFJxN3ypCaDL-36" value=" Service for storing large numbers of messages." style="text;strokeColor=none;fillColor=none;align=left;verticalAlign=middle;spacingLeft=4;spacingRight=4;overflow=hidden;points=[[0,0.5],[1,0.5]];portConstraint=eastwest;rotatable=0;fontSize=18;" vertex="1" parent="_TjgJpDyAFJxN3ypCaDL-35">
          <mxGeometry y="30" width="400" height="30" as="geometry" />
        </mxCell>
        <mxCell id="_TjgJpDyAFJxN3ypCaDL-37" value="Power Automate" style="swimlane;fontStyle=0;childLayout=stackLayout;horizontal=1;startSize=30;horizontalStack=0;resizeParent=1;resizeParentMax=0;resizeLast=0;collapsible=1;marginBottom=0;fontSize=18;" vertex="1" parent="1">
          <mxGeometry x="490" y="1190" width="540" height="60" as="geometry" />
        </mxCell>
        <mxCell id="_TjgJpDyAFJxN3ypCaDL-38" value="No/Low code automation platform for business and IT.operations." style="text;strokeColor=none;fillColor=none;align=left;verticalAlign=middle;spacingLeft=4;spacingRight=4;overflow=hidden;points=[[0,0.5],[1,0.5]];portConstraint=eastwest;rotatable=0;fontSize=18;" vertex="1" parent="_TjgJpDyAFJxN3ypCaDL-37">
          <mxGeometry y="30" width="540" height="30" as="geometry" />
        </mxCell>
        <mxCell id="_TjgJpDyAFJxN3ypCaDL-39" value="WebHooks" style="swimlane;fontStyle=0;childLayout=stackLayout;horizontal=1;startSize=30;horizontalStack=0;resizeParent=1;resizeParentMax=0;resizeLast=0;collapsible=1;marginBottom=0;fontSize=18;" vertex="1" parent="1">
          <mxGeometry x="490" y="1270" width="170" height="60" as="geometry" />
        </mxCell>
        <mxCell id="_TjgJpDyAFJxN3ypCaDL-40" value="Web Endpoint" style="text;strokeColor=none;fillColor=none;align=left;verticalAlign=middle;spacingLeft=4;spacingRight=4;overflow=hidden;points=[[0,0.5],[1,0.5]];portConstraint=eastwest;rotatable=0;fontSize=18;" vertex="1" parent="_TjgJpDyAFJxN3ypCaDL-39">
          <mxGeometry y="30" width="170" height="30" as="geometry" />
        </mxCell>
      </root>
    </mxGraphModel>
  </diagram>
</mxfile>
